<svg xmlns="http://www.w3.org/2000/svg" width="920" height="520" viewBox="0 0 920 520">
<rect width="100%" height="100%" fill="white"/>
<text x="460.0" y="28" text-anchor="middle" font-family="Arial, sans-serif" font-size="24" font-weight="700" fill="#222">Sequential sharded collectives vs AllReduce</text>
<text x="24" y="260.0" transform="rotate(-90 24 260.0)" text-anchor="middle" font-family="Arial, sans-serif" font-size="16" fill="#333">Time ratio</text>
<line x1="88" y1="444" x2="888" y2="444" stroke="#333"/>
<line x1="88" y1="54" x2="88" y2="444" stroke="#333"/>
<line x1="88" y1="444.0" x2="888" y2="444.0" stroke="#ddd"/>
<text x="78" y="449.0" text-anchor="end" font-family="Arial, sans-serif" font-size="13" fill="#555">1.05</text>
<line x1="88" y1="346.5" x2="888" y2="346.5" stroke="#ddd"/>
<text x="78" y="351.5" text-anchor="end" font-family="Arial, sans-serif" font-size="13" fill="#555">1.11</text>
<line x1="88" y1="249.0" x2="888" y2="249.0" stroke="#ddd"/>
<text x="78" y="254.0" text-anchor="end" font-family="Arial, sans-serif" font-size="13" fill="#555">1.18</text>
<line x1="88" y1="151.5" x2="888" y2="151.5" stroke="#ddd"/>
<text x="78" y="156.5" text-anchor="end" font-family="Arial, sans-serif" font-size="13" fill="#555">1.24</text>
<line x1="88" y1="54.0" x2="888" y2="54.0" stroke="#ddd"/>
<text x="78" y="59.0" text-anchor="end" font-family="Arial, sans-serif" font-size="13" fill="#555">1.30</text>
<line x1="88" y1="522.0" x2="888" y2="522.0" stroke="#555" stroke-dasharray="6,6"/>
<line x1="88.0" y1="444" x2="88.0" y2="450" stroke="#333"/>
<text x="88.0" y="470" text-anchor="middle" font-family="Arial, sans-serif" font-size="13" fill="#555">1</text>
<line x1="188.0" y1="444" x2="188.0" y2="450" stroke="#333"/>
<text x="188.0" y="470" text-anchor="middle" font-family="Arial, sans-serif" font-size="13" fill="#555">2</text>
<line x1="288.0" y1="444" x2="288.0" y2="450" stroke="#333"/>
<text x="288.0" y="470" text-anchor="middle" font-family="Arial, sans-serif" font-size="13" fill="#555">4</text>
<line x1="388.0" y1="444" x2="388.0" y2="450" stroke="#333"/>
<text x="388.0" y="470" text-anchor="middle" font-family="Arial, sans-serif" font-size="13" fill="#555">8</text>
<line x1="488.0" y1="444" x2="488.0" y2="450" stroke="#333"/>
<text x="488.0" y="470" text-anchor="middle" font-family="Arial, sans-serif" font-size="13" fill="#555">16</text>
<line x1="588.0" y1="444" x2="588.0" y2="450" stroke="#333"/>
<text x="588.0" y="470" text-anchor="middle" font-family="Arial, sans-serif" font-size="13" fill="#555">32</text>
<line x1="688.0" y1="444" x2="688.0" y2="450" stroke="#333"/>
<text x="688.0" y="470" text-anchor="middle" font-family="Arial, sans-serif" font-size="13" fill="#555">64</text>
<line x1="788.0" y1="444" x2="788.0" y2="450" stroke="#333"/>
<text x="788.0" y="470" text-anchor="middle" font-family="Arial, sans-serif" font-size="13" fill="#555">128</text>
<line x1="888.0" y1="444" x2="888.0" y2="450" stroke="#333"/>
<text x="888.0" y="470" text-anchor="middle" font-family="Arial, sans-serif" font-size="13" fill="#555">256</text>
<text x="488.0" y="502" text-anchor="middle" font-family="Arial, sans-serif" font-size="15" fill="#333">Message size (MB)</text>
<polyline points="88.0,117.5 188.0,155.9 288.0,143.7 388.0,124.1 488.0,137.6 588.0,153.6 688.0,170.0 788.0,199.0 888.0,285.6" fill="none" stroke="#8b1e3f" stroke-width="3"/>
<circle cx="88.0" cy="117.5" r="4.5" fill="#8b1e3f"/>
<circle cx="188.0" cy="155.9" r="4.5" fill="#8b1e3f"/>
<circle cx="288.0" cy="143.7" r="4.5" fill="#8b1e3f"/>
<circle cx="388.0" cy="124.1" r="4.5" fill="#8b1e3f"/>
<circle cx="488.0" cy="137.6" r="4.5" fill="#8b1e3f"/>
<circle cx="588.0" cy="153.6" r="4.5" fill="#8b1e3f"/>
<circle cx="688.0" cy="170.0" r="4.5" fill="#8b1e3f"/>
<circle cx="788.0" cy="199.0" r="4.5" fill="#8b1e3f"/>
<circle cx="888.0" cy="285.6" r="4.5" fill="#8b1e3f"/>
<line x1="108" y1="72" x2="136" y2="72" stroke="#8b1e3f" stroke-width="3"/>
<circle cx="122" cy="72" r="4" fill="#8b1e3f"/>
<text x="146" y="77" font-family="Arial, sans-serif" font-size="14" fill="#333">(RS + AG) / AllReduce</text>
</svg>